<svg xmlns="http://www.w3.org/2000/svg" xmlns:xlink="http://www.w3.org/1999/xlink">
  <defs>
      <symbol id="qwe" viewBox="0 0 40 40">
        <g stroke="blue">
          <path d="m2.13 3.87h33.9v32.2h-34.1v-32.2z" />
          <path d="m2.33 8.03 33.7-.0569" />
          <path d="m4.54 10.3h29.3v13.1h-29.5v-13.1z" />
          <path d="m4.46 26.7h17.1v1.92h-17.2v-1.92z" />
          <path d="m24 26.7h9.89v5.9h-10.1v-5.9z" />
          <path d="m4.77 30.6h8.62" />
          <path d="m4.84 32.7h8.56" />
          <path d="m17.3 30.6h3.87" />
          <path d="m17.3 32.7h3.9" />
          <path d="m14.2 5.5h19.6" />
          <path d="m3.72 5.46h1.1" />
          <path d="m6.64 5.51h1.12" />
          <path d="m9.49 5.54h1.08" />
          <path d="m16.7 13.2 5.82 3.65-5.85 3.83z" />
        </g>
      </symbol>
      <symbol id="iconcontent" viewBox="0 0 40 40">
        <g stroke="black" strokewidth="1">
          <path d="m2.13 3.87h33.9v32.2h-34.1v-32.2z" />
          <path d="m2.33 8.03 33.7-.0569" />
          <path d="m4.54 10.3h29.3v13.1h-29.5v-13.1z" />
          <path d="m4.46 26.7h17.1v1.92h-17.2v-1.92z" />
          <path d="m24 26.7h9.89v5.9h-10.1v-5.9z" />
          <path d="m4.77 30.6h8.62" />
          <path d="m4.84 32.7h8.56" />
          <path d="m17.3 30.6h3.87" />
          <path d="m17.3 32.7h3.9" />
          <path d="m14.2 5.5h19.6" />
          <path d="m3.72 5.46h1.1" />
          <path d="m6.64 5.51h1.12" />
          <path d="m9.49 5.54h1.08" />
          <path d="m16.7 13.2 5.82 3.65-5.85 3.83z" />
        </g>
      </symbol>
      <symbol id="iconphrases" viewBox="0 0 40 40">
        <g class="unit-pg-symbolist__icon-style">
          <path d="m32.5 20.3v17.6h-27.5l-1.4-.585-.822-.908-.414-.908-.297-1.8v-28.2l.333-.994.799-1.09.835-.695.857-.408 1.77-.247h25.8v3.49"/>
          <path d="m8.24 4.51v23"/>
          <path d="m32.5 29.3h-26.7l-1.06.045-.731.231-.835.585-.562.571-.464 1.24"/>
          <path d="m8.6 35.1h23.6"/>
          <path d="m8.58 31.9h23.4"/>
          <path d="m13.8 8.29h12.7v16h-12.8z"/>
          <path d="m30 21.9 1.54-.893 1.76-1.51 1.38-1.51.699-1.12.688-1.23.552-1.13.259-.793-1.69-1.02 2.51-1.58.72-2.17.175-1.59.0442-1.51-.306-1.77-.721-1.73-.834-1.71-.899 1.49-1.23 1.31-1.38 1.12-1.22 1.77-1.22 3.05-.679 2.82-.442 3.34.051 3.26.121 2.06.002 6.6"/>
          <path d="m35.3 6.96-1.26 2.45-.761 1.69-.503 1.87-.381 1.98"/>
        </g>
      </symbol>
      <symbol id="icondialogs" viewBox="0 0 40 40">
        <g class="unit-pg-symbolist__icon-style">
          <path d="m3.45 6.52 16.4.0427.688.229.311.434.0792 9.08-.434.885-.552.271-1.05.165-.0698 3.4-4.86-3.32-10.6.062-.411-.176-.335-.416-.156-.708v-8.92l.405-.648z"/>
          <path d="m5.04 9.64h7.28"/>
          <path d="m4.99 12.4h11.7"/>
          <path d="m4.97 15.3h3.54"/>
          <path d="m29.5 21.7h6.02"/>
          <path d="m24 24.4h11.5"/>
          <path d="m29 27.5h6.31"/>
          <path d="m21.3 18.9h17.6v11h-13.8l-3.8 3.66z" />
        </g>
      </symbol>
      <symbol id="icontraining" viewBox="0 0 40 40">
        <g class="unit-pg-symbolist__icon-style">
          <path d="m31 15 1.8-5.4.014-1.5-.82-1.3-.79-.84-.97-.36-4.2-.027 1.2-.38.59-.85-.0016-1.1-.85-1-.76-.072-.89.36-.51.66-.12.85.42.91.44.33.79.33-3.9-.06-.98.37-1.1 1-.51 1.3-.098 1.6-1.3-.027.028 2.4-1.6.019-.024-2.5-4.9.01-.0053 2.4-1.7-.01-.00041-2.4-4.2-.0076-.058 6 .12.91.74.73 1.1.41.049.91.055.81.52.61 1.3.38-1.7 9.6-.99.33-.54.61.039.88.0073 1-1.1.2-.6.6-.22.9-.07 1.9 32-.015-.092-4.8-.44-.7-.73-.25-1.3-.0012.0021-.85-.06-.65-.33-.81-1-.47-1.7-8.7"/>
          <path d="m33 28-12 .0057-2.8-.028-.96.63-.21 1 .047 1 17 .027"/>
          <path d="m33 19 .67-.81.057-.99-.05-1.5-15 .048-.056 2.1.22.81.44.48 1.2.19 12-.023z"/>
          <path d="m17 31-.89.051-.58.35-.42.65-.042 4.5"/>
          <path d="m8 18 9.8.017"/>
          <path d="m9.6 21 8.9-.033.94-.85-.059-.6"/>
          <path d="m18 21 .73 4.5-.49 2.7 1.9-8.7"/>
          <path d="m20 10 1.4 5"/>
          <path d="m17 30-8.9-.003"/>
          <path d="m15 33-8.1-.015"/>
        </g>
      </symbol>
      <symbol id="iconpractice" viewBox="0 0 40 40">
        <g class="unit-pg-symbolist__icon-style">
          <path d="m8.6 20.4 10.8 10.8" style="stroke-dashoffset:.265"/>
          <path d="m6.28 21.6 10.5 10.5" style="stroke-dasharray:1, 2;"/>
          <ellipse transform="matrix(.708 -.707 .708 .707 0 0)" cx="5.65" cy="28" rx="6.5" ry="3.23"/>
          <path d="m5.89 24.7-2.23 1.49-1.18 1.34-.763 1.42-.4 1.61-.0204 2 4.81-1.96-2.08 5.66 5.86-1.85-1.91 4.86 1.7-.297 1.37-.546 1.49-.91 1.07-.953.9-1.26.337-.881.199-.926"/>
          <path d="m9.25 16.9 13.3 13.4 2.86-2.63 3.1-3.64 2.26-3.15 1.68-3.16 1.22-2.32 1.01-2.85.9-2.87.45-2.2.38-2.46.082-2.31-3.1.423-3.02.561-2.67.7-3.45 1.25-1.76.762-2.79 1.53-2.44 1.52-2.83 2.2-2.9 2.69z"/>
          <path d="m18.2 8.57-2.1-.0151-1.77.361-1.63.5-1.37.794-1.51 1.12 2.49 2.38"/>
          <path d="m30.9 20.7.0265 3.3-.47 2.13-.769 1.56-.913 1.51-.617.6-2.41-2.35"/>
          <path d="m29.1 4.35.752 2.27 1.31 1.68 1.59 1.02 1.16.615 1.4.357"/>
          <path d="m38.2 1.28-1.8 1.65"/>
          <path d="m15 16.9-2.72 2.82"/>
          <path d="m22.7 24.9-2.68 2.81"/>
        </g>
      </symbol>
      <symbol id="iconspelling" viewBox="0 0 40 40">
        <g class="unit-pg-symbolist__icon-style">
          <path d="m29 .56-28 .11.0056 39 39 .063.03-29"/>
          <path d="m15 10 8 8 15-15-.19-.93-.9.16-14 12-7-5-.74.15z"/>
          <path d="m13 31 .004-4.4-.14-1-.24-.62-.33-.63-.61-.67-.76-.58-.82-.39-.93-.2-.81-.0045-.5.047-.65.17-.62.27-.62.42-.49.41-.45.61-.35.64-.24.75-.12.76.015.85.24.99.31.71.45.63.53.52.71.51.79.3.87.15.82-.0052.76-.14.7-.29.53-.33.66-.66.62-.91.38-.7.27-.55"/>
          <path d="m17 19 .001 9 .12.63.26.71.42.68.48.56.55.47.59.3.67.27.77.13.79-.0012.66-.074.57-.17.54-.23.53-.35.49-.45.45-.56.43-.77.27-.85.059-1-.064-.72-.23-.82-.4-.82-.62-.72-.75-.6-.92-.39-.96-.18-.91.033-.82.23-.67.41-.72.62-.56.67-.45.69-.36.72-.18.61v0"/>
          <path d="m36 24-.77-.72-1-.52-.9-.16-1-.022-.75.19-.93.43-.72.67-.52.67-.36.84-.21.94-.027.97.13.94.25.71.53.82.59.63.62.43.77.32.62.16.6.045.58-.01.73-.12.62-.21.55-.3.49-.38h-.0046"/>
        </g>
      </symbol>
      <symbol id="iconaudio" viewBox="0 0 40 40">
        <g class="unit-pg-symbolist__icon-style">
          <path d="m8.6 20.4 10.8 10.8" style="stroke-dashoffset:.265"/>
          <path d="m6.28 21.6 10.5 10.5" style="stroke-dasharray:1, 2;"/>
          <ellipse transform="matrix(.708 -.707 .708 .707 0 0)" cx="5.65" cy="28" rx="6.5" ry="3.23"/>
          <path d="m5.89 24.7-2.23 1.49-1.18 1.34-.763 1.42-.4 1.61-.0204 2 4.81-1.96-2.08 5.66 5.86-1.85-1.91 4.86 1.7-.297 1.37-.546 1.49-.91 1.07-.953.9-1.26.337-.881.199-.926"/>
          <path d="m9.25 16.9 13.3 13.4 2.86-2.63 3.1-3.64 2.26-3.15 1.68-3.16 1.22-2.32 1.01-2.85.9-2.87.45-2.2.38-2.46.082-2.31-3.1.423-3.02.561-2.67.7-3.45 1.25-1.76.762-2.79 1.53-2.44 1.52-2.83 2.2-2.9 2.69z"/>
          <path d="m18.2 8.57-2.1-.0151-1.77.361-1.63.5-1.37.794-1.51 1.12 2.49 2.38"/>
          <path d="m30.9 20.7.0265 3.3-.47 2.13-.769 1.56-.913 1.51-.617.6-2.41-2.35"/>
          <path d="m29.1 4.35.752 2.27 1.31 1.68 1.59 1.02 1.16.615 1.4.357"/>
          <path d="m38.2 1.28-1.8 1.65"/>
          <path d="m15 16.9-2.72 2.82"/>
          <path d="m22.7 24.9-2.68 2.81"/>
        </g>
      </symbol>
      <symbol id="iconedit" viewBox="0 0 40 40">
        <g class="unit-pg-symbolist__icon-style">
          <path d="m29 .63-28-.2.023 39 39-.023-.079-29" />
          <path d="m31 4.5-20 19-3.1 8.1 7.4-3.3 20-20z" />
          <path d="m11 24 2.5.19 1.5 1.7.14 3 .027.0091v0" />
          <path d="m31 4.4 2.5.011 2.3 2.1.014 2.3" />
          <path d="m29 6.5 4.6 4.4" />
          <path d="m14 24 11-11v0" />
          <path d="m15 26 14-14" />
        </g>
      </symbol>
  </defs>
</svg>
